<svg xmlns="http://www.w3.org/2000/svg" width="800" height="600" viewBox="0 0 800 600" role="img" aria-label="5B 87>1@065=8O">
  <rect width="800" height="600" fill="#e8e4eb"/>
  <path d="M250 230c20-65 75-110 150-110s130 45 150 110c40 15 70 55 70 105 0 90-65 165-220 165S180 425 180 335c0-50 30-90 70-105z" fill="#f0eff3" stroke="#333" stroke-width="10"/>
  <circle cx="335" cy="320" r="18" fill="#333"/>
  <circle cx="465" cy="320" r="18" fill="#333"/>
  <path d="M385 360c10 10 20 10 30 0" stroke="#333" stroke-width="10" stroke-linecap="round" fill="none"/>
  <path d="M310 270l-40-60 70 20" fill="#f0eff3" stroke="#333" stroke-width="10" stroke-linejoin="round"/>
  <path d="M490 270l40-60-70 20" fill="#f0eff3" stroke="#333" stroke-width="10" stroke-linejoin="round"/>
  <text x="400" y="540" text-anchor="middle" font-family="Segoe UI, Tahoma, sans-serif" font-size="28" fill="#333">7>1@065=85 >BACBAB2C5B</text>
</svg>
